<!-- filepath: /home/gefgu/repos/h3-cities-react/public/logo.svg -->
<svg width="64" height="64" viewBox="0 0 64 64" fill="none" xmlns="http://www.w3.org/2000/svg">
  <defs>
    <linearGradient id="grad1" x1="0%" y1="0%" x2="100%" y2="100%">
      <stop offset="0%" style="stop-color:#3b82f6;stop-opacity:1" />
      <stop offset="100%" style="stop-color:#1d4ed8;stop-opacity:1" />
    </linearGradient>
  </defs>
  
  <!-- Background circle -->
  <circle cx="32" cy="32" r="30" fill="url(#grad1)" stroke="#1e293b" stroke-width="2"/>
  
  <!-- Central hexagon -->
  <polygon points="32,15 42,21 42,33 32,39 22,33 22,21" fill="white" stroke="#1e293b" stroke-width="2"/>
  
  <!-- Surrounding hexagons -->
  <polygon points="17,10 22,7 27,10 27,16 22,19 17,16" fill="rgba(255,255,255,0.7)" stroke="#1e293b" stroke-width="1"/>
  <polygon points="37,10 42,7 47,10 47,16 42,19 37,16" fill="rgba(255,255,255,0.7)" stroke="#1e293b" stroke-width="1"/>
  <polygon points="47,25 52,22 57,25 57,31 52,34 47,31" fill="rgba(255,255,255,0.7)" stroke="#1e293b" stroke-width="1"/>
  <polygon points="47,39 52,36 57,39 57,45 52,48 47,45" fill="rgba(255,255,255,0.7)" stroke="#1e293b" stroke-width="1"/>
  <polygon points="37,54 42,51 47,54 47,60 42,63 37,60" fill="rgba(255,255,255,0.7)" stroke="#1e293b" stroke-width="1"/>
  <polygon points="17,54 22,51 27,54 27,60 22,63 17,60" fill="rgba(255,255,255,0.7)" stroke="#1e293b" stroke-width="1"/>
  <polygon points="7,39 12,36 17,39 17,45 12,48 7,45" fill="rgba(255,255,255,0.7)" stroke="#1e293b" stroke-width="1"/>
  <polygon points="7,25 12,22 17,25 17,31 12,34 7,31" fill="rgba(255,255,255,0.7)" stroke="#1e293b" stroke-width="1"/>
</svg>