<svg width="64" height="64" viewBox="0 0 64 64" fill="none" xmlns="http://www.w3.org/2000/svg">
  <defs>
    <linearGradient id="bgGrad" x1="0%" y1="0%" x2="100%" y2="100%">
      <stop offset="0%" style="stop-color:#3b82f6;stop-opacity:1" />
      <stop offset="100%" style="stop-color:#1d4ed8;stop-opacity:1" />
    </linearGradient>
    <linearGradient id="cityGrad" x1="0%" y1="100%" x2="0%" y2="0%">
      <stop offset="0%" style="stop-color:#1e293b;stop-opacity:1" />
      <stop offset="100%" style="stop-color:#475569;stop-opacity:1" />
    </linearGradient>
  </defs>
  
  <!-- Hexagon background -->
  <polygon points="32,4 54,16 54,40 32,52 10,40 10,16" fill="url(#bgGrad)" stroke="#1e293b" stroke-width="2"/>
  
  <!-- City skyline -->
  <g fill="url(#cityGrad)">
    <!-- Building 1 (left) -->
    <rect x="14" y="35" width="4" height="12" rx="0.5"/>
    
    <!-- Building 2 -->
    <rect x="19" y="30" width="5" height="17" rx="0.5"/>
    
    <!-- Building 3 (tallest, center) -->
    <rect x="25" y="22" width="6" height="25" rx="0.5"/>
    
    <!-- Building 4 -->
    <rect x="32" y="28" width="5" height="19" rx="0.5"/>
    
    <!-- Building 5 -->
    <rect x="38" y="33" width="4" height="14" rx="0.5"/>
    
    <!-- Building 6 (right) -->
    <rect x="43" y="37" width="4" height="10" rx="0.5"/>
  </g>
  
  <!-- Building windows -->
  <g fill="rgba(255,255,255,0.8)">
    <!-- Building 1 windows -->
    <rect x="15" y="37" width="1" height="1" rx="0.2"/>
    <rect x="16.5" y="37" width="1" height="1" rx="0.2"/>
    <rect x="15" y="39" width="1" height="1" rx="0.2"/>
    <rect x="16.5" y="39" width="1" height="1" rx="0.2"/>
    
    <!-- Building 2 windows -->
    <rect x="20" y="32" width="1" height="1" rx="0.2"/>
    <rect x="22" y="32" width="1" height="1" rx="0.2"/>
    <rect x="20" y="34" width="1" height="1" rx="0.2"/>
    <rect x="22" y="34" width="1" height="1" rx="0.2"/>
    <rect x="20" y="36" width="1" height="1" rx="0.2"/>
    <rect x="22" y="36" width="1" height="1" rx="0.2"/>
    
    <!-- Building 3 windows (tallest) -->
    <rect x="26.5" y="24" width="1" height="1" rx="0.2"/>
    <rect x="29" y="24" width="1" height="1" rx="0.2"/>
    <rect x="26.5" y="26" width="1" height="1" rx="0.2"/>
    <rect x="29" y="26" width="1" height="1" rx="0.2"/>
    <rect x="26.5" y="28" width="1" height="1" rx="0.2"/>
    <rect x="29" y="28" width="1" height="1" rx="0.2"/>
    <rect x="26.5" y="30" width="1" height="1" rx="0.2"/>
    <rect x="29" y="30" width="1" height="1" rx="0.2"/>
    <rect x="26.5" y="32" width="1" height="1" rx="0.2"/>
    <rect x="29" y="32" width="1" height="1" rx="0.2"/>
    
    <!-- Building 4 windows -->
    <rect x="33.5" y="30" width="1" height="1" rx="0.2"/>
    <rect x="35" y="30" width="1" height="1" rx="0.2"/>
    <rect x="33.5" y="32" width="1" height="1" rx="0.2"/>
    <rect x="35" y="32" width="1" height="1" rx="0.2"/>
    <rect x="33.5" y="34" width="1" height="1" rx="0.2"/>
    <rect x="35" y="34" width="1" height="1" rx="0.2"/>
    
    <!-- Building 5 windows -->
    <rect x="39" y="35" width="1" height="1" rx="0.2"/>
    <rect x="40.5" y="35" width="1" height="1" rx="0.2"/>
    <rect x="39" y="37" width="1" height="1" rx="0.2"/>
    <rect x="40.5" y="37" width="1" height="1" rx="0.2"/>
    
    <!-- Building 6 windows -->
    <rect x="44" y="39" width="1" height="1" rx="0.2"/>
    <rect x="45.5" y="39" width="1" height="1" rx="0.2"/>
    <rect x="44" y="41" width="1" height="1" rx="0.2"/>
    <rect x="45.5" y="41" width="1" height="1" rx="0.2"/>
  </g>
  
  <!-- Antenna on tallest building -->
  <line x1="28" y1="22" x2="28" y2="18" stroke="white" stroke-width="0.5"/>
  <circle cx="28" cy="18" r="0.8" fill="rgba(255,255,255,0.9)"/>
</svg>